PathFileType	4	(X/Y/Z)	/Users/itak/Documents/Research/Walk-IL/dataset/trc/00184_00008.trc
DataRate	CameraRate	NumFrames	NumMarkers	Units	OrigDataRate	OrigDataStartFrame	OrigNumFrames
100.000000	100.000000	4	53	mm	100.000000	295	789
Frame#	Time	RPSI			LPSI			L3			STRN			T10			C7			CLAV			RBAK			LBAK			LSHO			LUPA			LAEL			LAOL			LWTS			LWPS			LFRA			LIFD			LHPS			LHTS			RSHO			RUPA			RAEL			RAOL			RWTS			RWPS			RFRA			RIFD			RHTS			RHPS			RBHD			LFHD			RFHD			LBHD			LHIP			RHIP			RASI			LASI			LKNE			LTHI			LANK			LTIP			LTOE			LMT1			LMT5			LHEE			RKNE			RTHI			RANK			RTIP			RTOE			RMT1			RMT5			RHEE			
		X1	Y1	Z1	X2	Y2	Z2	X3	Y3	Z3	X4	Y4	Z4	X5	Y5	Z5	X6	Y6	Z6	X7	Y7	Z7	X8	Y8	Z8	X9	Y9	Z9	X10	Y10	Z10	X11	Y11	Z11	X12	Y12	Z12	X13	Y13	Z13	X14	Y14	Z14	X15	Y15	Z15	X16	Y16	Z16	X17	Y17	Z17	X18	Y18	Z18	X19	Y19	Z19	X20	Y20	Z20	X21	Y21	Z21	X22	Y22	Z22	X23	Y23	Z23	X24	Y24	Z24	X25	Y25	Z25	X26	Y26	Z26	X27	Y27	Z27	X28	Y28	Z28	X29	Y29	Z29	X30	Y30	Z30	X31	Y31	Z31	X32	Y32	Z32	X33	Y33	Z33	X34	Y34	Z34	X35	Y35	Z35	X36	Y36	Z36	X37	Y37	Z37	X38	Y38	Z38	X39	Y39	Z39	X40	Y40	Z40	X41	Y41	Z41	X42	Y42	Z42	X43	Y43	Z43	X44	Y44	Z44	X45	Y45	Z45	X46	Y46	Z46	X47	Y47	Z47	X48	Y48	Z48	X49	Y49	Z49	X50	Y50	Z50	X51	Y51	Z51	X52	Y52	Z52	X53	Y53	Z53	

296	2.95	1142.21923828125	1043.942016601562	155.3198394775391	1019.5419921875	1041.580200195312	159.0933380126953	1080.015869140625	1082.258178710938	156.5379943847656	1059.439819335938	1294.331298828125	-102.7707214355469	1059.458862304688	1238.244140625	192.6279449462891	1027.607055664062	1506.121459960938	130.4723663330078	1041.068359375	1406.53955078125	-72.84049224853516	1147.405639648438	1339.9423828125	195.5780639648438	930.7754516601562	1473.447265625	136.8952178955078	854.869384765625	1458.859130859375	57.91547012329102	785.7169799804688	1323.865600585938	83.51820373535156	763.635986328125	1111.319702148438	49.42052841186523	840.5347900390625	1086.170532226562	90.04409027099609	778.7737426757812	912.7085571289062	-114.633186340332	751.7749633789062	870.3607177734375	-35.69231033325195	748.7888793945312	1004.805969238281	14.25893783569336	796.51318359375	739.8914184570312	-178.9480590820312	750.5855102539062	808.855224609375	-75.00228881835938	753.8803100585938	838.4867553710938	-141.6315460205078	1208.541015625	1501.375610351562	69.54426574707031	1280.373291015625	1441.128173828125	91.91761016845703	1363.6591796875	1160.12060546875	111.2909469604492	1268.015502929688	1144.94580078125	112.1822357177734	1364.568115234375	954.8792724609375	-61.30318832397461	1406.477661132812	927.1065063476562	11.92098045349121	1387.711547851562	1090.427856445312	78.21316528320312	1344.283447265625	776.5072631835938	-110.6222229003906	1377.41552734375	867.3455200195312	-102.9876861572266	1407.677490234375	850.16748046875	-30.7753963470459	1096.095825195312	1671.7978515625	63.15648651123047	916.26708984375	1718.851928710938	-50.73307037353516	1039.3447265625	1737.597900390625	-88.50193786621094	969.1005249023438	1658.720581054688	111.4142913818359	904.0488891601562	974.50537109375	57.83703994750977	1266.24365234375	1012.255249023438	-3.331688404083252	1207.323364257812	1044.708374023438	-79.77350616455078	949.2091064453125	1019.762390136719	-68.94069671630859	1015.092895507812	482.5374145507812	-27.16924285888672	963.4611206054688	621.4063720703125	-8.510117530822754	1103.370239257812	36.55542755126953	59.77433395385742	1048.973754882812	253.9908142089844	9.597442626953125	1085.67529296875	36.55978393554688	-158.8079833984375	1141.04541015625	30.38872909545898	-119.2071151733398	1046.23291015625	37.75410079956055	-39.33114242553711	1179.717163085938	33.52909851074219	98.14317321777344	1265.142822265625	537.9615478515625	-186.5850067138672	1280.59716796875	805.9652709960938	-118.2976760864258	1309.144653320312	127.7479629516602	99.22257995605469	1265.434204101562	415.4566955566406	-159.8622436523438	1311.463989257812	53.50581359863281	-107.5906295776367	1257.753173828125	67.18892669677734	-65.97364044189453	1358.083618164062	82.55416107177734	4.353006839752197	1234.298583984375	141.4893646240234	134.6327056884766	
297	2.96	1142.692260742188	1043.698974609375	146.4876403808594	1020.156555175781	1041.292236328125	152.4171600341797	1080.331176757812	1082.031616210938	148.7396545410156	1056.284912109375	1293.737670898438	-110.7361145019531	1059.515380859375	1238.191650390625	184.7793731689453	1026.962158203125	1505.873291015625	122.3344268798828	1038.475219726562	1406.10107421875	-80.92817687988281	1147.370483398438	1339.715209960938	186.6531066894531	930.1369018554688	1473.315307617188	129.9170379638672	853.552978515625	1458.811401367188	51.46778869628906	784.4559326171875	1323.783569335938	76.90110778808594	761.8552856445312	1111.480102539062	40.86046600341797	838.5703125	1085.786499023438	81.14248657226562	776.5313720703125	915.0119018554688	-125.7577514648438	749.6547241210938	871.5734252929688	-47.37856674194336	746.89111328125	1005.344055175781	4.40879487991333	794.0306396484375	743.1714477539062	-192.6054382324219	748.3695068359375	810.629150390625	-87.53671264648438	751.5379638671875	841.2125854492188	-153.7529754638672	1207.356567382812	1500.829711914062	59.79362106323242	1279.353149414062	1440.620971679688	81.60132598876953	1363.198608398438	1159.81298828125	100.7450561523438	1267.573608398438	1144.495239257812	102.5240707397461	1362.740478515625	954.6453247070312	-71.89945983886719	1405.319946289062	926.8390502929688	0.8686029314994812	1387.031372070312	1090.119995117188	67.44580078125	1342.148193359375	776.2369995117188	-121.2648544311523	1375.288208007812	867.2758178710938	-113.9040679931641	1406.240478515625	849.9722900390625	-41.97247695922852	1095.28759765625	1671.17578125	54.34313583374023	914.9234619140625	1718.79296875	-58.4873046875	1037.813842773438	1736.989013671875	-97.03336334228516	968.544189453125	1658.666137695312	103.4396591186523	903.099365234375	973.7950439453125	53.37800598144531	1263.932373046875	1012.213012695312	-14.36215496063232	1203.40283203125	1044.245483398438	-89.445556640625	945.6514892578125	1019.161071777344	-74.50065612792969	1013.906555175781	481.845947265625	-28.60226631164551	962.1988525390625	620.93310546875	-10.98827266693115	1103.412475585938	36.63336944580078	59.75465774536133	1048.971435546875	253.6579132080078	9.047958374023438	1085.698120117188	36.46908187866211	-158.8783416748047	1141.03564453125	30.35377502441406	-119.2551193237305	1046.22265625	37.65883255004883	-39.38450622558594	1179.703247070312	33.80608749389648	98.07550811767578	1257.061889648438	539.9246826171875	-202.3633422851562	1275.444091796875	807.0950927734375	-131.7207946777344	1308.191772460938	117.1313323974609	64.52326202392578	1257.873779296875	416.15185546875	-179.5490570068359	1303.966918945312	53.72640609741211	-145.760009765625	1251.424194335938	64.85858917236328	-101.7965087890625	1354.02783203125	76.68476104736328	-33.88908767700195	1234.542114257812	129.6266174316406	102.8384399414062	
298	2.97	1143.131958007812	1043.359619140625	137.5860290527344	1020.779602050781	1040.90869140625	145.6899871826172	1080.662719726562	1081.692626953125	140.9063873291016	1053.053833007812	1293.057373046875	-118.6875457763672	1059.59423828125	1238.053833007812	176.9075775146484	1026.3203125	1505.542114257812	114.2070465087891	1035.821411132812	1405.577026367188	-89.00609588623047	1147.34716796875	1339.4033203125	177.6754913330078	929.4895629882812	1473.091186523438	122.9429779052734	852.2167358398438	1458.67578125	45.0621452331543	783.20361328125	1323.612548828125	70.32887268066406	760.1596069335938	1111.562866210938	32.38321304321289	836.5896606445312	1085.380737304688	72.38668823242188	774.4681396484375	917.1296997070312	-136.593017578125	747.6187133789062	872.6995239257812	-58.78384780883789	745.0665893554688	1005.815979003906	-5.282851219177246	791.7171020507812	746.2152709960938	-205.7781372070312	746.254638671875	812.2999267578125	-99.73497772216797	749.390869140625	843.7653198242188	-165.5443725585938	1206.123413085938	1500.217407226562	49.99634170532227	1278.284301757812	1440.04248046875	71.21239471435547	1362.660888671875	1159.430419921875	90.09617614746094	1267.058227539062	1143.965942382812	92.74185943603516	1360.92041015625	954.1997680664062	-82.42582702636719	1404.156494140625	926.4400634765625	-10.05521965026855	1386.284790039062	1089.733520507812	56.63314437866211	1340.04931640625	775.634521484375	-131.5440979003906	1373.201782226562	866.9217529296875	-124.6149597167969	1404.821411132812	849.5914916992188	-52.9209098815918	1094.415649414062	1670.467041015625	45.55498123168945	913.5369873046875	1718.644653320312	-66.24224090576172	1036.245971679688	1736.307495117188	-105.5483322143555	967.932861328125	1658.514892578125	95.46585083007812	902.0614624023438	973.1229248046875	48.82016372680664	1261.504028320312	1012.012145996094	-25.40461540222168	1199.425415039062	1043.746704101562	-99.17057800292969	942.0771484375	1018.486083984375	-80.03940582275391	1012.730163574219	481.1632690429688	-30.16898536682129	961.0580444335938	620.4124145507812	-13.57081031799316	1103.457885742188	36.72568511962891	59.73159790039062	1049.111328125	253.2664642333984	8.462434768676758	1085.730102539062	36.36553955078125	-158.9515533447266	1141.043579101562	30.30226707458496	-119.3173446655273	1046.228393554688	37.54916381835938	-39.44852447509766	1179.642333984375	34.11008834838867	98.017822265625	1248.902587890625	541.6366577148438	-217.4040679931641	1270.110107421875	807.9789428710938	-144.8694305419922	1306.388427734375	106.871940612793	29.30277824401855	1250.093994140625	416.8360900878906	-198.7199401855469	1295.271728515625	54.38318634033203	-183.6887359619141	1244.04736328125	63.03379821777344	-137.5119323730469	1348.890258789062	71.30541229248047	-72.37037658691406	1234.057373046875	118.0031433105469	70.47718048095703	
299	2.98	1143.52783203125	1042.930053710938	128.6155548095703	1021.384216308594	1040.432861328125	138.8954467773438	1080.994140625	1081.248657226562	133.0328674316406	1049.748779296875	1292.303955078125	-126.6358261108398	1059.683837890625	1237.833618164062	169.0064849853516	1025.679077148438	1505.135009765625	106.0912780761719	1033.112182617188	1404.97900390625	-97.07632446289062	1147.33251953125	1339.009765625	168.6385192871094	928.8389282226562	1472.792602539062	115.9657745361328	850.8662719726562	1458.459228515625	38.70459365844727	781.9616088867188	1323.364624023438	63.81533432006836	758.5449829101562	1111.566528320312	24.01188278198242	834.6776123046875	1084.956420898438	63.82221221923828	772.57421875	919.0538330078125	-147.1256103515625	745.6823120117188	873.73046875	-69.88793182373047	743.325439453125	1006.220397949219	-14.78750419616699	789.5751342773438	749.0219116210938	-218.4636383056641	744.2527465820312	813.8573608398438	-111.5789947509766	747.4340209960938	846.1364135742188	-176.9913940429688	1204.84228515625	1499.54345703125	40.14645004272461	1277.166015625	1439.39794921875	60.74221420288086	1362.039306640625	1158.9755859375	79.34646606445312	1266.462524414062	1143.364990234375	82.84310150146484	1359.112670898438	953.538330078125	-92.8724365234375	1402.984008789062	925.9136352539062	-20.84903907775879	1385.465454101562	1089.268188476562	45.77835845947266	1337.995971679688	774.7232666015625	-141.4798278808594	1371.164306640625	866.2916870117188	-135.1253356933594	1403.41162109375	849.0191650390625	-63.61597442626953	1093.470825195312	1669.686279296875	36.78921127319336	912.0987548828125	1718.403198242188	-74.00789642333984	1034.634643554688	1735.5556640625	-114.0533599853516	967.25439453125	1658.2734375	87.48441314697266	900.9629516601562	972.482421875	44.17712783813477	1258.963989257812	1011.688110351562	-36.47537994384766	1195.394897460938	1043.21630859375	-108.9425811767578	938.498291015625	1017.745178222656	-85.57173919677734	1011.581604003906	480.4832763671875	-31.87680435180664	959.9937744140625	619.85009765625	-16.2725944519043	1103.499389648438	36.82593154907227	59.70237350463867	1049.331787109375	252.8419036865234	7.820075035095215	1085.764770507812	36.25074768066406	-159.0253295898438	1141.067016601562	30.23136329650879	-119.3922958374023	1046.240478515625	37.42353439331055	-39.51789474487305	1179.556762695312	34.42930221557617	97.95880889892578	1240.722778320312	543.0794677734375	-231.7223052978516	1264.633178710938	808.603271484375	-157.7197113037109	1303.638793945312	97.09517669677734	-6.347390651702881	1242.110717773438	417.5240783691406	-217.3751831054688	1285.343627929688	55.50482559204102	-221.242919921875	1235.571166992188	61.77143096923828	-172.9981994628906	1342.5966796875	66.49137115478516	-110.9654541015625	1232.747680664062	106.714958190918	37.63882446289062	
